<svg xmlns="http://www.w3.org/2000/svg" viewBox="0 0 21 15"><title>FR</title><g id="Layer_2" data-name="Layer 2"><g id="Layer_1-2" data-name="Layer 1"><g id="FR"><polygon id="Shape" points="6 0 15 0 15 15 6 15 6 0" fill="#f6f9fc"/><path id="Shape-2" data-name="Shape" d="M6,15V14h9v1ZM6,0h9V1H6Z" fill="#8898aa" opacity="0.1" style="isolation:isolate"/><path id="Shape-3" data-name="Shape" d="M2,0H7V15H2a2,2,0,0,1-2-2V2A2,2,0,0,1,2,0Z" fill="#555abf"/><path id="Shape-4" data-name="Shape" d="M19,15H14V0h5a2,2,0,0,1,2,2V13A2,2,0,0,1,19,15Z" fill="#e25950"/></g></g></g></svg>