<svg xmlns="http://www.w3.org/2000/svg" width="21" height="15" viewBox="0 0 21 15">
  <title>GB</title>
  <g>
    <path d="M20.93,13.5H18.5V15H2.5V13.5H.07A2.08,2.08,0,0,1,0,13V2a2.08,2.08,0,0,1,.07-.5H2.5V0h16V1.5h2.43A2.08,2.08,0,0,1,21,2V13A2.08,2.08,0,0,1,20.93,13.5Z" fill="#43458b"/>
    <path d="M17.66,0H19a2,2,0,0,1,2,2v.45L17.63,5H21v5H17.71L21,12.48V13a2,2,0,0,1-2,2H17.74L13,11.42V15H8V11.42L3.26,15H2a2,2,0,0,1-2-2v-.52L3.29,10H0V5H3.37L0,2.45V2A2,2,0,0,1,2,0H3.34L8,3.52V0h5V3.52Z" fill="#f6f9fc"/>
    <path d="M12,9v6H9V9H0V6H9V0h3V6h9V9Zm.5-3.5V5.28L19.43.05a2,2,0,0,1,1.14.72L14.31,5.5ZM.21,1.13a2,2,0,0,1,.9-.91l7,5.28H6ZM8.5,9.5v.22L1.57,15a2,2,0,0,1-1.14-.72L6.69,9.5Zm12.29,4.37a2,2,0,0,1-.89.91l-7-5.28H15Z" fill="#e25950"/>
  </g>
</svg>
