<svg xmlns="http://www.w3.org/2000/svg" width="21" height="15" viewBox="0 0 21 15">
  <title>MY</title>
  <g>
    <path d="M18.81,15H2.19A2.17,2.17,0,0,1,0,12.84V6.47H8.78V0h10A2.17,2.17,0,0,1,21,2.16V12.84A2.17,2.17,0,0,1,18.81,15Z" fill="#e25950"/>
    <path d="M0,11.85H21v1.08H0ZM0,9.7H21v1.08H0ZM0,7.54H21V8.62H0ZM8.78,5.39H21V6.47H8.78Zm0-2.16H21V4.31H8.78Zm0-2.15H20.69A2.05,2.05,0,0,1,21,2.16H8.78ZM18.81,15H2.11A2.15,2.15,0,0,1,.36,14H20.63A2.08,2.08,0,0,1,18.81,15Z" fill="#f6f9fc"/>
    <path d="M18.81,15H2.19A2.17,2.17,0,0,1,0,12.84V6.47H1.1v6.37a1.08,1.08,0,0,0,1.09,1.08H18.81a1.08,1.08,0,0,0,1.09-1.08V2.16a1.08,1.08,0,0,0-1.09-1.08h-10V0h10A2.17,2.17,0,0,1,21,2.16V12.84a2.15,2.15,0,0,1-.8,1.67A2.18,2.18,0,0,1,18.81,15Z" fill="#e25950" opacity="0.2" style="isolation: isolate"/>
    <path d="M11,0H2.19A2,2,0,0,0,0,1.72V8.61H11Z" fill="#555abf"/>
    <g>
      <path d="M5.82,6.62A2.43,2.43,0,0,1,3.45,4.89,2.38,2.38,0,0,1,4.52,2.18a2.44,2.44,0,0,1,2.92.3,3.09,3.09,0,0,0-3.75-1A3,3,0,0,0,4.94,7.27,3,3,0,0,0,7.44,6,2.4,2.4,0,0,1,5.82,6.62Z" fill="#fcd669"/>
      <polygon points="8.23 2.57 8.42 3.42 8.97 2.73 8.76 3.58 9.55 3.19 8.99 3.87 9.88 3.86 9.08 4.22 9.88 4.59 8.99 4.58 9.55 5.26 8.76 4.87 8.97 5.72 8.42 5.03 8.23 5.88 8.05 5.03 7.5 5.72 7.71 4.87 6.92 5.26 7.47 4.58 6.59 4.59 7.39 4.22 6.59 3.86 7.47 3.87 6.92 3.19 7.71 3.58 7.5 2.73 8.05 3.42 8.23 2.57" fill="#fcd669" fill-rule="evenodd"/>
    </g>
  </g>
</svg>
