<svg xmlns="http://www.w3.org/2000/svg" width="16" height="16" viewBox="0 0 16 16">
  <g fill="none" fill-rule="evenodd" transform="translate(0 2)">
    <path fill="#43458B" fill-rule="nonzero" d="M14,12 L2,12 C0.8954305,12 1.3527075e-16,11.1045695 0,10 L0,2 C-1.3527075e-16,0.8954305 0.8954305,2.02906125e-16 2,0 L14,0 C15.1045695,-2.02906125e-16 16,0.8954305 16,2 L16,10 C16,11.1045695 15.1045695,12 14,12 Z"/>
    <path fill="#F6F9FC" fill-rule="nonzero" d="M13.5,8.23448531e-11 L14,-7.32249816e-11 C15.1045695,-1.09583075e-10 16,0.8954305 16,2 L13.5,4 L16,4 L16,8 L13.5,8 L16,9.5 L16,10 C16,11.1045695 15.1045695,12 14,12 L13,12 L10,9.5 L10,12 L6,12 L6,9.5 L2.5,12 L2,12 C0.8954305,12 -2.95138109e-11,11.1045695 -6.5894401e-11,10 L2.5,8 L7.36267405e-11,8 L7.36267405e-11,4 L2.5,4 L7.36267405e-11,2 L-6.58277877e-11,2 C-1.06502945e-10,0.8954305 0.8954305,-3.29166206e-11 2,-7.35913552e-11 L2.5,8.23148771e-11 L6,2.5 L6,8.23148771e-11 L10,8.23162093e-11 L10,2.5 L13.5,8.23448531e-11 Z"/>
    <path fill="#EAEEF3" fill-rule="nonzero" d="M13.7639319 2.22045346e-16L14 2.22045346e-16C15.104569 2.22045346e-16 15.9999991.89542965 16 1.99999843L15 2.79999953 15 2C15 1.44771525 14.5522847 1 14 1L12.1000004 1 13.4999996 6.31086479e-7 13.7639319 2.22045346e-16zM15 4.00000013L16 4.00000013 16 5.00000013 15 5.00000013 15 4.00000013zM0 5.00000013L0 4.00000013 1 4.00000013 1 5.00000013 0 5.00000013zM1 2.79999988L5.64460899e-7 2.00000038C4.65500805e-7.895430035.895430787 2.22044605e-16 2 2.22044605e-16L2.23606751 2.22044605e-16 2.50000039 6.31086449e-7 3.89999958 1 2 1C1.44771525 1 1 1.44771525 1 2L1 2.79999988zM6.00000014 1.00000063L6.00000014 6.31086449e-7 9.99999986 6.31086449e-7 9.99999986 1.00000063 6.00000014 1.00000063zM15 8L15 7 16 7 16 8 15 8zM15 8.9L16 9.5 16 10C16 11.1045695 15.1045695 12 14 12L13 12 11.8 11 14 11C14.5522847 11 15 10.5522847 15 10L15 8.9zM10 11L10 12 6 12 6 11 10 11zM3.9 11L2.5 12 2 12C.8954305 12 7.90109662e-13 11.1045695-2.21746449e-16 10L1 9.2 1 10C1 10.5522847 1.44771525 11 2 11L3.9 11zM1 8L-2.21746449e-16 8-2.21746449e-16 7 1 7 1 8z"/>
    <path fill="#E25950" d="M9,7 L9,12 L7,12 L7,7 L0,7 L0,5 L7,5 L7,0 L9,0 L9,5 L16,5 L16,7 L9,7 Z M14.7941825,0.163886756 C15.1928001,0.336537641 15.5241406,0.635195884 15.7379681,1.00962556 L12,4 L10,4 L14.7941825,0.163886756 Z M0.262031946,1.00962556 C0.475748166,0.635390678 0.806855172,0.33684841 1.2051954,0.164156318 L6,4 L4,4 L0.262031946,1.00962556 Z M1.2051954,11.8358437 C0.806855172,11.6631516 0.475748166,11.3646093 0.262031946,10.9903744 L4,8 L6,8 L1.2051954,11.8358437 Z M15.7379681,10.9903744 C15.5242518,11.3646093 15.1931448,11.6631516 14.7948046,11.8358437 L10,8 L12,8 L15.7379681,10.9903744 Z"/>
  </g>
</svg>
