<svg xmlns="http://www.w3.org/2000/svg" width="21" height="15" viewBox="0 0 21 15"><title>MY</title><path d="M19,15H2a2,2,0,0,1-2-2V6H8V0H19a2,2,0,0,1,2,2V13A2,2,0,0,1,19,15Z" style="fill:#e25950"/><path d="M0,11H21v1H0ZM0,9H21v1H0ZM0,7H21V8H0ZM8,5H21V6H8ZM8,3H21V4H8ZM8,1H20.72A2,2,0,0,1,21,2H8ZM20.72,14H.28A2,2,0,0,1,0,13H21A2,2,0,0,1,20.72,14Z" style="fill:#f6f9fc"/><path d="M19,15H2a2,2,0,0,1-2-2V6H1v7a1,1,0,0,0,1,1H19a1,1,0,0,0,1-1V2a1,1,0,0,0-1-1H8V0H19a2,2,0,0,1,2,2V13A2,2,0,0,1,19,15Z" style="fill:#e25950;opacity:0.200000002980232;isolation:isolate"/><path d="M10,0H2A2,2,0,0,0,0,2v8H10Z" style="fill:#555abf"/><path d="M6.5,7.75A2.75,2.75,0,1,1,8.34,3,3.5,3.5,0,1,0,5.5,8.5,3.46,3.46,0,0,0,8.34,7,2.73,2.73,0,0,1,6.5,7.75Z" style="fill:#fcd669"/><circle cx="7.5" cy="5" r="1" style="fill:#fcd669"/></svg>