<svg xmlns="http://www.w3.org/2000/svg" width="21" height="15" viewBox="0 0 21 15">
  <title>US</title>
  <g>
    <path d="M19,15H2a2,2,0,0,1-2-2V6H8V0H19a2,2,0,0,1,2,2V13A2,2,0,0,1,19,15Z" fill="#e25950"/>
    <path d="M0,11H21v1H0ZM0,9H21v1H0ZM0,7H21V8H0ZM8,5H21V6H8ZM8,3H21V4H8ZM8,1H20.72A2,2,0,0,1,21,2H8ZM20.72,14H.28A2,2,0,0,1,0,13H21A2,2,0,0,1,20.72,14Z" fill="#f6f9fc"/>
    <path d="M19,15H2a2,2,0,0,1-2-2V6H1v7a1,1,0,0,0,1,1H19a1,1,0,0,0,1-1V2a1,1,0,0,0-1-1H8V0H19a2,2,0,0,1,2,2V13A2,2,0,0,1,19,15Z" fill="#e25950" opacity="0.2" style="isolation: isolate"/>
    <path d="M0,7V2A2,2,0,0,1,2,0H9V7Z" fill="#43458b"/>
    <path d="M7.73,2.41a.69.69,0,0,1-.63-.35.7.7,0,0,1,0-.71A.69.69,0,0,1,7.73,1a.71.71,0,0,1,0,1.41ZM7.43,3.7a.7.7,0,1,1-.7-.7A.7.7,0,0,1,7.43,3.7ZM5.73,2.41a.69.69,0,0,1-.63-.35.71.71,0,0,1,0-.72A.7.7,0,0,1,5.73,1a.7.7,0,0,1,.68.7A.71.71,0,0,1,5.73,2.41ZM5.43,3.7a.7.7,0,1,1-.7-.7A.7.7,0,0,1,5.43,3.7ZM3.73,2.41a.69.69,0,0,1-.63-.35.71.71,0,0,1,0-.72A.7.7,0,0,1,3.73,1a.7.7,0,0,1,.68.7A.71.71,0,0,1,3.73,2.41ZM3.43,3.7a.7.7,0,1,1-.7-.7A.7.7,0,0,1,3.43,3.7ZM1.73,2.41a.69.69,0,0,1-.63-.35.7.7,0,0,1,0-.71A.69.69,0,0,1,1.73,1a.71.71,0,0,1,0,1.41ZM1.73,5a.7.7,0,0,1,.63.34.71.71,0,0,1,0,.72.69.69,0,0,1-.63.35.71.71,0,0,1-.68-.71A.7.7,0,0,1,1.73,5Zm2,0a.7.7,0,0,1,.63.34.71.71,0,0,1,0,.72.69.69,0,0,1-.63.35.71.71,0,0,1-.68-.71A.7.7,0,0,1,3.73,5Zm2,0a.7.7,0,0,1,.63.34.71.71,0,0,1,0,.72.69.69,0,0,1-.63.35.71.71,0,0,1-.68-.71A.7.7,0,0,1,5.73,5Zm2,0a.7.7,0,0,1,.63.34.71.71,0,0,1,0,.72.69.69,0,0,1-.63.35.71.71,0,0,1-.68-.71A.7.7,0,0,1,7.73,5Z" fill="#fff"/>
    <path d="M9,4.21a.67.67,0,0,1-.48.2.71.71,0,0,1-.64-.34.69.69,0,0,1,0-.73A.73.73,0,0,1,9,3.2Zm-9-1a.68.68,0,0,1,.77-.19.7.7,0,0,1,.45.66.71.71,0,0,1-.7.7A.69.69,0,0,1,0,4.17Z" fill="#fff" opacity="0.5" style="isolation: isolate"/>
  </g>
</svg>
