<svg xmlns="http://www.w3.org/2000/svg" width="16" height="16" viewBox="0 0 16 16">
  <g fill="none" fill-rule="evenodd" transform="translate(0 2)">
    <path fill="#E25950" fill-rule="nonzero" d="M14,12 L2,12 C0.8954305,12 -5.68434189e-14,11.1045695 -5.68434189e-14,10 L-5.68434189e-14,6 L-5.68434189e-14,2 C-5.69786896e-14,0.8954305 0.8954305,2.02906125e-16 2,0 L8,0 L14,0 C15.1045695,0 16,0.8954305 16,2 L16,10 C16,11.1045695 15.1045695,12 14,12 Z"/>
    <path fill="#F6F9FC" fill-rule="nonzero" d="M-5.68434189e-14,9 L16,9 L16,10 L-5.68434189e-14,10 L-5.68434189e-14,9 Z M14,12 L2,12 C1.25971764,12 0.613373811,11.5978014 0.267564391,11 L15.7324356,11 C15.3866262,11.5978014 14.7402824,12 14,12 Z M-5.68434189e-14,7 L16,7 L16,8 L-5.68434189e-14,8 L-5.68434189e-14,7 Z M8,5 L16,5 L16,6 L8,6 L8,5 Z M8,3 L16,3 L16,4 L8,4 L8,3 Z M8,1 L15.723,1 C15.894,1.295 16,1.634 16,2 L8,2 L8,1 Z"/>
    <path fill="#E25950" fill-rule="nonzero" d="M14,12 L2,12 C0.8954305,12 -5.68434189e-14,11.1045695 -5.68434189e-14,10 L-5.68434189e-14,6 L1,6 L1,10 C1,10.5522847 1.44771525,11 2,11 L14,11 C14.5522847,11 15,10.5522847 15,10 L15,2 C15,1.44771525 14.5522847,1 14,1 L8,1 L8,0 L14,0 C15.1045695,0 16,0.8954305 16,2 L16,10 C16,11.1045695 15.1045695,12 14,12 Z" opacity=".1"/>
    <path fill="#43458B" fill-rule="nonzero" d="M-5.68434189e-14,6 L-5.68434189e-14,1.71428571 C-5.68434189e-14,0.767511857 0.795938223,0 1.77777778,0 L8,0 L8,6 L-5.68434189e-14,6 Z"/>
    <path fill="#FFF" fill-rule="nonzero" d="M7.02550943,3.50100201 C7.02550943,3.77714438 6.80165181,4.00100201 6.52550943,4.00100201 C6.24936706,4.00100201 6.02550943,3.77714438 6.02550943,3.50100201 C6.02550943,3.22485963 6.24936706,3.00100201 6.52550943,3.00100201 C6.80165181,3.00100201 7.02550943,3.22485963 7.02550943,3.50100201 Z M5.51782226,2.99964346 C5.33482332,3.00654415 5.16269322,2.91285069 5.06914346,2.75541965 C4.97559371,2.5979886 4.97559371,2.4020114 5.06914346,2.24458035 C5.16269322,2.08714931 5.33482332,1.99345585 5.51782226,2.00035654 C5.78644246,2.01048591 5.99898115,2.23118965 5.99898115,2.5 C5.99898115,2.76881035 5.78644246,2.98951409 5.51782226,2.99964346 Z M5.02550943,3.50100201 C5.02550943,3.77714438 4.80165181,4.00100201 4.52550943,4.00100201 C4.24936706,4.00100201 4.02550943,3.77714438 4.02550943,3.50100201 C4.02550943,3.22485963 4.24936706,3.00100201 4.52550943,3.00100201 C4.80165181,3.00100201 5.02550943,3.22485963 5.02550943,3.50100201 Z M3.51782226,2.99964346 C3.33482332,3.00654415 3.16269322,2.91285069 3.06914346,2.75541965 C2.97559371,2.5979886 2.97559371,2.4020114 3.06914346,2.24458035 C3.16269322,2.08714931 3.33482332,1.99345585 3.51782226,2.00035654 C3.78644246,2.01048591 3.99898115,2.23118965 3.99898115,2.5 C3.99898115,2.76881035 3.78644246,2.98951409 3.51782226,2.99964346 Z M3.02550943,3.50100201 C3.02550943,3.77714438 2.80165181,4.00100201 2.52550943,4.00100201 C2.24936706,4.00100201 2.02550943,3.77714438 2.02550943,3.50100201 C2.02550943,3.22485963 2.24936706,3.00100201 2.52550943,3.00100201 C2.80165181,3.00100201 3.02550943,3.22485963 3.02550943,3.50100201 Z M7.02550943,1.50100201 C7.02550943,1.77714438 6.80165181,2.00100201 6.52550943,2.00100201 C6.24936706,2.00100201 6.02550943,1.77714438 6.02550943,1.50100201 C6.02550943,1.22485963 6.24936706,1.00100201 6.52550943,1.00100201 C6.80165181,1.00100201 7.02550943,1.22485963 7.02550943,1.50100201 Z M5.02550943,1.50100201 C5.02550943,1.77714438 4.80165181,2.00100201 4.52550943,2.00100201 C4.24936706,2.00100201 4.02550943,1.77714438 4.02550943,1.50100201 C4.02550943,1.22485963 4.24936706,1.00100201 4.52550943,1.00100201 C4.80165181,1.00100201 5.02550943,1.22485963 5.02550943,1.50100201 Z M3.02550943,1.50100201 C3.02550943,1.77714438 2.80165181,2.00100201 2.52550943,2.00100201 C2.24936706,2.00100201 2.02550943,1.77714438 2.02550943,1.50100201 C2.02550943,1.22485963 2.24936706,1.00100201 2.52550943,1.00100201 C2.80165181,1.00100201 3.02550943,1.22485963 3.02550943,1.50100201 Z M1.5188545,3.00164295 C1.33585255,3.00854867 1.1637174,2.91485645 1.0701646,2.75742349 C0.9766118,2.59999052 0.9766118,2.40400948 1.0701646,2.24657651 C1.1637174,2.08914355 1.33585255,1.99545133 1.5188545,2.00235705 C1.78746924,2.01249342 2,2.23319484 2,2.502 C2,2.77080516 1.78746924,2.99150658 1.5188545,3.00164295 Z M1.53305035,4.00036202 C1.7160534,3.99359265 1.88811559,4.08740873 1.98155267,4.24490575 C2.07498976,4.40240276 2.07485047,4.59837895 1.9811896,4.75574299 C1.88752874,4.91310703 1.71533336,5.00667844 1.53234012,4.99964894 C1.26372582,4.98933041 1.05134207,4.76847509 1.05153313,4.49966351 C1.05172418,4.23085192 1.26442166,4.01029872 1.53305035,4.00036202 Z M3.53305035,4.00036202 C3.7160534,3.99359265 3.88811559,4.08740873 3.98155267,4.24490575 C4.07498976,4.40240276 4.07485047,4.59837895 3.9811896,4.75574299 C3.88752874,4.91310703 3.71533336,5.00667844 3.53234012,4.99964894 C3.26372582,4.98933041 3.05134207,4.76847509 3.05153313,4.49966351 C3.05172418,4.23085192 3.26442166,4.01029872 3.53305035,4.00036202 Z M5.53305035,4.00036202 C5.7160534,3.99359265 5.88811559,4.08740873 5.98155267,4.24490575 C6.07498976,4.40240276 6.07485047,4.59837895 5.9811896,4.75574299 C5.88752874,4.91310703 5.71533336,5.00667844 5.53234012,4.99964894 C5.26372582,4.98933041 5.05134207,4.76847509 5.05153313,4.49966351 C5.05172418,4.23085192 5.26442166,4.01029872 5.53305035,4.00036202 Z"/>
    <path fill="#FFF" d="M6.53305035,5.00036202 C6.7160534,4.99359265 6.88811559,5.08740873 6.98155267,5.24490575 C7.07498976,5.40240276 7.07485047,5.59837895 6.9811896,5.75574299 C6.88752874,5.91310703 6.71533336,6.00667844 6.53234012,5.99964894 C6.26372582,5.98933041 6.05134207,5.76847509 6.05153313,5.49966351 C6.05172418,5.23085192 6.26442166,5.01029872 6.53305035,5.00036202 Z M4.53305035,5.00036202 C4.7160534,4.99359265 4.88811559,5.08740873 4.98155267,5.24490575 C5.07498976,5.40240276 5.07485047,5.59837895 4.9811896,5.75574299 C4.88752874,5.91310703 4.71533336,6.00667844 4.53234012,5.99964894 C4.26372582,5.98933041 4.05134207,5.76847509 4.05153313,5.49966351 C4.05172418,5.23085192 4.26442166,5.01029872 4.53305035,5.00036202 Z M2.53305035,5.00036202 C2.7160534,4.99359265 2.88811559,5.08740873 2.98155267,5.24490575 C3.07498976,5.40240276 3.07485047,5.59837895 2.9811896,5.75574299 C2.88752874,5.91310703 2.71533336,6.00667844 2.53234012,5.99964894 C2.26372582,5.98933041 2.05134207,5.76847509 2.05153313,5.49966351 C2.05172418,5.23085192 2.26442166,5.01029872 2.53305035,5.00036202 Z M0.481517354,5.0003431 C0.6645204,4.99357373 0.836582594,5.08738981 0.930019677,5.24488683 C1.02345676,5.40238384 1.02331747,5.59836004 0.929656608,5.75572407 C0.835995742,5.91308811 0.663800365,6.00665952 0.480807126,5.99963003 C0.212192828,5.98931149 -0.000190924754,5.76845617 1.28797537e-07,5.49964459 C0.000191182349,5.23083301 0.212888659,5.0102798 0.481517354,5.0003431 Z M0.481517354,3.0003431 C0.6645204,2.99357373 0.836582594,3.08738981 0.930019677,3.24488683 C1.02345676,3.40238384 1.02331747,3.59836004 0.929656608,3.75572407 C0.835995742,3.91308811 0.663800365,4.00665952 0.480807126,3.99963003 C0.212192828,3.98931149 -0.000190924754,3.76845617 1.28797537e-07,3.49964459 C0.000191182349,3.23083301 0.212888659,3.0102798 0.481517354,3.0003431 Z M0.481517354,1.0003431 C0.6645204,0.993573733 0.836582594,1.08738981 0.930019677,1.24488683 C1.02345676,1.40238384 1.02331747,1.59836004 0.929656608,1.75572407 C0.835995742,1.91308811 0.663800365,2.00665952 0.480807126,1.99963003 C0.212192828,1.98931149 -0.000190924754,1.76845617 1.28797537e-07,1.49964459 C0.000191182349,1.23083301 0.212888659,1.0102798 0.481517354,1.0003431 Z M1.48151735,0.000343101604 C1.6645204,-0.00642626724 1.83658259,0.0873898138 1.93001968,0.244886828 C2.02345676,0.402383843 2.02331747,0.598360035 1.92965661,0.755724073 C1.83599574,0.913088112 1.66380036,1.00665952 1.48080713,0.999630025 C1.21219283,0.989311489 0.999809075,0.768456168 1.00000013,0.499644587 C1.00019118,0.230833006 1.21288866,0.0102798035 1.48151735,0.000343101604 Z M3.48151735,0.000343101604 C3.6645204,-0.00642626724 3.83658259,0.0873898138 3.93001968,0.244886828 C4.02345676,0.402383843 4.02331747,0.598360035 3.92965661,0.755724073 C3.83599574,0.913088112 3.66380036,1.00665952 3.48080713,0.999630025 C3.21219283,0.989311489 2.99980908,0.768456168 3.00000013,0.499644587 C3.00019118,0.230833006 3.21288866,0.0102798035 3.48151735,0.000343101604 Z M5.48151735,0.000343101604 C5.6645204,-0.00642626724 5.83658259,0.0873898138 5.93001968,0.244886828 C6.02345676,0.402383843 6.02331747,0.598360035 5.92965661,0.755724073 C5.83599574,0.913088112 5.66380036,1.00665952 5.48080713,0.999630025 C5.21219283,0.989311489 4.99980908,0.768456168 5.00000013,0.499644587 C5.00019118,0.230833006 5.21288866,0.0102798035 5.48151735,0.000343101604 Z M7.48151735,0.000343101604 C7.6645204,-0.00642626724 7.83658259,0.0873898138 7.93001968,0.244886828 C8.02345676,0.402383843 8.02331747,0.598360035 7.92965661,0.755724073 C7.83599574,0.913088112 7.66380036,1.00665952 7.48080713,0.999630025 C7.21219283,0.989311489 6.99980908,0.768456168 7.00000013,0.499644587 C7.00019118,0.230833006 7.21288866,0.0102798035 7.48151735,0.000343101604 Z M7.48151735,2.0003431 C7.6645204,1.99357373 7.83658259,2.08738981 7.93001968,2.24488683 C8.02345676,2.40238384 8.02331747,2.59836004 7.92965661,2.75572407 C7.83599574,2.91308811 7.66380036,3.00665952 7.48080713,2.99963003 C7.21219283,2.98931149 6.99980908,2.76845617 7.00000013,2.49964459 C7.00019118,2.23083301 7.21288866,2.0102798 7.48151735,2.0003431 Z M7.48151735,4.0003431 C7.6645204,3.99357373 7.83658259,4.08738981 7.93001968,4.24488683 C8.02345676,4.40238384 8.02331747,4.59836004 7.92965661,4.75572407 C7.83599574,4.91308811 7.66380036,5.00665952 7.48080713,4.99963003 C7.21219283,4.98931149 6.99980908,4.76845617 7.00000013,4.49964459 C7.00019118,4.23083301 7.21288866,4.0102798 7.48151735,4.0003431 Z" opacity=".5"/>
  </g>
</svg>
