<?xml version="1.0" encoding="UTF-8"?>
<svg width="98px" height="65px" viewBox="0 0 98 65" version="1.1" xmlns="http://www.w3.org/2000/svg" xmlns:xlink="http://www.w3.org/1999/xlink">
    <!-- Generator: Sketch 61 (89581) - https://sketch.com -->
    <title>MY</title>
    <desc>Created with Sketch.</desc>
    <g id="Page-1" stroke="none" stroke-width="1" fill="none" fill-rule="evenodd">
        <g id="MY-launch-blog" transform="translate(-390.000000, -84.000000)">
            <g id="MY" transform="translate(390.390000, 84.000000)">
                <path d="M87.9609524,64.4428571 L9.25904762,64.4428571 C4.14541682,64.4428571 0,60.2974403 0,55.1838095 L0,27.7771429 L37.0361905,27.7771429 L37.0361905,0 L87.9609524,0 C93.0745832,0 97.22,4.14541682 97.22,9.25904762 L97.22,55.1838095 C97.22,60.2974403 93.0745832,64.4428571 87.9609524,64.4428571 Z" id="Path" fill="#E25950" fill-rule="nonzero"></path>
                <path d="M0,50.9247619 L97.22,50.9247619 L97.22,55.5542857 L0,55.5542857 L0,50.9247619 Z M0,41.6657143 L97.22,41.6657143 L97.22,46.2952381 L0,46.2952381 L0,41.6657143 Z M0,32.4066667 L97.22,32.4066667 L97.22,37.0361905 L0,37.0361905 L0,32.4066667 Z M37.0361905,23.147619 L97.22,23.147619 L97.22,27.7771429 L37.0361905,27.7771429 L37.0361905,23.147619 Z M37.0361905,13.8885714 L97.22,13.8885714 L97.22,18.5180952 L37.0361905,18.5180952 L37.0361905,13.8885714 Z M37.0361905,4.62952381 L95.9237333,4.62952381 C96.7559049,6.03164739 97.2030676,7.62865705 97.22,9.25904762 L37.0361905,9.25904762 L37.0361905,4.62952381 Z M87.9609524,64.4428571 L8.90481353,64.4428571 C6.52700629,64.4428571 3.05424434,62.9755374 1.52160528,60.1838095 L95.6744775,60.1838095 C94.5197425,62.3821978 91.5964793,64.4428571 87.9609524,64.4428571 Z" id="Shape" fill="#F6F9FC" fill-rule="nonzero"></path>
                <path d="M87.9609524,64.4428571 L9.25904762,64.4428571 C4.14541682,64.4428571 0,60.2974403 0,55.1838095 L0,27.7771429 L4.62952381,27.7771429 L4.62952381,55.1838095 C4.62952381,57.7406249 6.70223222,59.8133333 9.25904762,59.8133333 L87.9609524,59.8133333 C90.5177678,59.8133333 92.5904762,57.7406249 92.5904762,55.1838095 L92.5904762,9.25904762 C92.5904762,6.70223222 90.5177678,4.62952381 87.9609524,4.62952381 L37.0361905,4.62952381 L37.0361905,0 L87.9609524,0 C93.0745832,0 97.22,4.14541682 97.22,9.25904762 L97.22,55.1838095 C97.22,58.0602606 95.9083334,60.6303556 93.850494,62.3286006 C92.2499952,63.6494224 90.1981321,64.4428571 87.9609524,64.4428571 Z" id="Path" fill="#E25950" fill-rule="nonzero" opacity="0.200000003"></path>
                <path d="M46.2952381,0 L9.25904762,0 C4.14541682,0 0,3.31309285 0,7.4 L0,37 L46.2952381,37 L46.2952381,0 Z" id="Path" fill="#555ABF" fill-rule="nonzero"></path>
                <g id="Group-9" transform="translate(7.706463, 5.047022)" fill="#FCD669">
                    <path d="M16.8655616,23.3933575 C12.2501162,23.4727686 8.15326295,20.4340364 6.86462319,15.9754267 C5.57598343,11.516817 7.41465681,6.74239375 11.3530581,4.32045403 C15.2914594,1.89851431 20.3543414,2.42879131 23.7121951,5.61492745 C20.1709252,0.499889624 13.5369639,-1.39692225 7.85032036,1.0796293 C2.16367676,3.55618085 -1.0006149,9.72016335 0.284464009,15.8177796 C1.56954292,21.9153958 6.94806308,26.2577841 13.1445651,26.2004781 C17.3695491,26.186564 21.3188614,24.0884217 23.7121951,20.586237 C21.8615565,22.3537894 19.4173024,23.3559339 16.8655616,23.3933575 Z" id="Path" fill-rule="nonzero"></path>
                    <polygon id="Fill-1" points="27.0460112 5.98686076 27.8374768 9.63289531 30.1324854 6.69125523 29.2636231 10.3196479 32.607754 8.6651532 30.2505721 11.5571399 33.9812592 11.517588 30.6028405 13.1005193 33.9812592 14.6834506 30.2505721 14.6437564 32.607754 17.5357431 29.2636231 15.8813907 30.1324854 19.5096411 27.8374768 16.5681433 27.0460112 20.2141778 26.2545455 16.5681433 23.959537 19.5096411 24.8283993 15.8813907 21.4842684 17.5357431 23.8414503 14.6437564 20.1107632 14.6834506 23.4891819 13.1005193 20.1107632 11.517588 23.8414503 11.5571399 21.4842684 8.6651532 24.8283993 10.3196479 23.959537 6.69125523 26.2545455 9.63289531"></polygon>
                </g>
            </g>
        </g>
    </g>
</svg>